<svg width="136" height="136" viewBox="0 0 136 136" fill="none" xmlns="http://www.w3.org/2000/svg">
<g filter="url(#filter0_di_1719_6516)">
<rect x="24" y="8" width="88" height="88" rx="16" fill="#EB5757" shape-rendering="crispEdges"/>
<rect x="25" y="9" width="86" height="86" rx="15" stroke="white" stroke-opacity="0.24" stroke-width="2" shape-rendering="crispEdges"/>
<path fill-rule="evenodd" clip-rule="evenodd" d="M64.613 38.9432C66.0891 36.3523 69.9103 36.3523 71.3864 38.9432L84.1732 61.3874C85.6078 63.9055 83.7406 67 80.7865 67H55.2128C52.2588 67 50.3915 63.9055 51.8261 61.3874L64.613 38.9432ZM69.6662 60.3333C69.6662 61.2538 68.92 62 67.9996 62C67.0791 62 66.3329 61.2538 66.3329 60.3333C66.3329 59.4129 67.0791 58.6667 67.9996 58.6667C68.92 58.6667 69.6662 59.4129 69.6662 60.3333ZM69.2496 47C69.2496 46.3096 68.6899 45.75 67.9996 45.75C67.3092 45.75 66.7496 46.3096 66.7496 47V55.3333C66.7496 56.0237 67.3092 56.5833 67.9996 56.5833C68.6899 56.5833 69.2496 56.0237 69.2496 55.3333V47Z" fill="white"/>
</g>
<defs>
<filter id="filter0_di_1719_6516" x="0" y="0" width="136" height="136" filterUnits="userSpaceOnUse" color-interpolation-filters="sRGB">
<feFlood flood-opacity="0" result="BackgroundImageFix"/>
<feColorMatrix in="SourceAlpha" type="matrix" values="0 0 0 0 0 0 0 0 0 0 0 0 0 0 0 0 0 0 127 0" result="hardAlpha"/>
<feOffset dy="16"/>
<feGaussianBlur stdDeviation="12"/>
<feComposite in2="hardAlpha" operator="out"/>
<feColorMatrix type="matrix" values="0 0 0 0 0.921569 0 0 0 0 0.341176 0 0 0 0 0.341176 0 0 0 0.25 0"/>
<feBlend mode="normal" in2="BackgroundImageFix" result="effect1_dropShadow_1719_6516"/>
<feBlend mode="normal" in="SourceGraphic" in2="effect1_dropShadow_1719_6516" result="shape"/>
<feColorMatrix in="SourceAlpha" type="matrix" values="0 0 0 0 0 0 0 0 0 0 0 0 0 0 0 0 0 0 127 0" result="hardAlpha"/>
<feOffset/>
<feGaussianBlur stdDeviation="12"/>
<feComposite in2="hardAlpha" operator="arithmetic" k2="-1" k3="1"/>
<feColorMatrix type="matrix" values="0 0 0 0 1 0 0 0 0 1 0 0 0 0 1 0 0 0 0.4 0"/>
<feBlend mode="normal" in2="shape" result="effect2_innerShadow_1719_6516"/>
</filter>
</defs>
</svg>
