<svg width="38" height="34" viewBox="0 0 38 34" fill="none" xmlns="http://www.w3.org/2000/svg">
<path d="M0.28949 1.66406C14.3201 1.91495 32.2171 28.3744 32.2171 28.3744C31.6703 28.2457 22.3229 26.5474 17.408 22.2694C17.408 22.2694 21.982 22.739 24.9412 21.8576C24.9412 21.8576 20.4252 19.3294 15.536 19.3294L7.17936 9.7505C7.17936 9.7505 10.1836 9.19725 11.7533 9.6926C11.8112 9.7119 11.734 9.66687 11.7855 9.6926C11.7855 9.6926 7.53319 7.67903 5.99567 8.08432C5.99567 8.08432 3.19083 2.6226 0.373121 1.79916L0 1.6705H0.28949V1.66406Z" fill="#000"/>
<path d="M19.1769 2.3465C12.7824 -1.39758 3.39648 0.461593 3.39648 0.461593C18.9132 1.07274 33.6772 25.7888 33.6772 25.7888C33.6772 25.7888 32.3584 8.83108 22.8824 3.28573C22.8824 3.28573 24.7351 6.12917 24.8188 7.55089C24.8188 7.55089 21.718 3.83255 19.1834 2.3465H19.1769Z" fill="#B1866D"/>
<path d="M9.66348 23.5938C9.66348 23.5938 3.30756 29.6537 2.24609 30.979C2.24609 30.979 22.6777 27.2285 30.198 30.3871C28.8342 29.345 22.9093 25.7617 5.39832 29.4157L9.66348 23.5938Z" fill="#B1866D"/>
<path d="M7.37175 32.0686C24.5289 28.7041 30.1321 32.8535 30.1321 32.8535C22.9849 30.1258 6.73487 33.619 6.73487 33.619L3.9043 29.4375H4.71487L7.37818 32.0686H7.37175Z" fill="#B1866D"/>
<path d="M37.1324 33.1194H35.6978C35.6978 33.1194 33.1824 28.6999 30.4548 24.602C28.3576 21.4626 25.2504 17.6671 23.9187 16.0652C23.5135 15.5827 23.0953 15.1196 22.6578 14.6692C21.487 13.4727 19.0424 10.8608 18.2061 10.0889C17.0675 9.04026 14.0053 6.24186 13.3556 5.74007C12.7058 5.23829 20.3484 11.3755 21.0689 12.0252C21.7894 12.675 24.8966 15.4863 28.2354 19.79C31.5742 24.0938 33.5877 27.3682 34.9901 29.742C36.3926 32.1159 37.1452 33.1194 37.1452 33.1194H37.1324Z" fill="#000"/>
</svg>
